#!OML:ASF I:\Actors\actors\Patient Classification 2\Patient 1\Session 1\actor1.ASF
:FULLY-SPECIFIED
:DEGREES
452
root -0.556995 18.6539 6.1856 1.2143 0.000594076 -4.10841
lowerback 4.04378 -0.0250395 -1.82007
upperback -4.66111 -0.0964163 1.13505
thorax -7.13314 0.0817529 2.21942
lowerneck -12.9401 -0.784044 -2.57307
upperneck 11.5929 -1.6357 7.45841
head 5.71298 -0.350709 2.63811
rclavicle 6.31141e-015 -4.77083e-015
rhumerus -56.3192 -9.14801 -70.7992
rradius 46.5499
rwrist 10.9363
rhand -4.41136 -44.5181
rfingers 7.12502
rthumb 21.3589 -73.3609
lclavicle 6.31141e-015 -4.77083e-015
lhumerus 31.9892 -20.6905 51.4925
lradius 138.117
lwrist 13.7705
lhand -22.8016 -53.1365
lfingers 7.12502
lthumb 3.63467 -23.1877
rfemur 0 0 0
rtibia 0
rfoot 0 0
rtoes 0
lfemur -4.79454 -6.44763 -10.8109
ltibia 24.3279
lfoot -24.3828 11.4364
ltoes -55.4248
453
root -0.556575 18.6539 6.1841 1.20511 0.0373267 -4.1229
lowerback 4.06762 -0.0280016 -1.80834
upperback -4.66335 -0.100892 1.11889
thorax -7.14909 0.0786785 2.19648
lowerneck -12.9822 -0.77249 -2.56095
upperneck 11.626 -1.62377 7.45711
head 5.72978 -0.343031 2.63719
rclavicle 2.78299e-015 3.97569e-016
rhumerus -56.3338 -9.14147 -70.8506
rradius 46.5898
rwrist 10.9384
rhand -4.44661 -44.4515
rfingers 7.12502
rthumb 21.325 -73.2982
lclavicle 2.78299e-015 3.97569e-016
lhumerus 32.0069 -20.6981 51.4287
lradius 138.155
lwrist 13.8105
lhand -22.7758 -53.0647
lfingers 7.12502
lthumb 3.65956 -23.1164
rfemur 0 0 0
rtibia 0
rfoot 0 0
rtoes 0
lfemur -4.80616 -6.44692 -10.7909
ltibia 24.3376
lfoot -24.3605 11.4182
ltoes -55.4877
454
root -0.556058 18.6539 6.1825 1.19926 0.0689361 -4.11354
lowerback 4.08251 -0.0364885 -1.83477
upperback -4.66757 -0.115233 1.10711
thorax -7.16156 0.0728527 2.20058
lowerneck -13.011 -0.75572 -2.5653
upperneck 11.6568 -1.60669 7.49112
head 5.7438 -0.331234 2.65064
rclavicle -2.43511e-015 2.38542e-015
rhumerus -56.3231 -9.11582 -70.9038
rradius 46.6176
rwrist 10.909
rhand -4.43499 -44.488
rfingers 7.12502
rthumb 21.3362 -73.3334
lclavicle -2.43511e-015 2.38542e-015
lhumerus 32.0149 -20.6755 51.3708
lradius 138.168
lwrist 13.8358
lhand -22.7826 -53.0086
lfingers 7.12502
lthumb 3.65308 -23.0602
rfemur 0 0 0
rtibia 0
rfoot 0 0
rtoes 0
lfemur -4.81823 -6.49258 -10.8046
ltibia 24.3483
lfoot -24.3413 11.4587
ltoes -55.5605
455
root -0.555385 18.6534 6.18044 1.19639 0.0862286 -4.13367
lowerback 4.1036 -0.0309148 -1.81425
upperback -4.68562 -0.107388 1.09402
thorax -7.19346 0.0758245 2.17477
lowerneck -12.974 -0.759252 -2.54474
upperneck 11.6613 -1.61762 7.50261
head 5.73953 -0.335396 2.64988
rclavicle 5.96354e-016 7.95139e-016
rhumerus -56.3233 -9.10291 -70.94
rradius 46.5975
rwrist 10.8857
rhand -4.45197 -44.4923
rfingers 7.12502
rthumb 21.3199 -73.3396
lclavicle 5.96354e-016 7.95139e-016
lhumerus 31.999 -20.6931 51.3542
lradius 138.156
lwrist 13.8777
lhand -22.798 -53.0634
lfingers 7.12502
lthumb 3.63819 -23.1147
rfemur 0 0 0
rtibia 0
rfoot 0 0
rtoes 0
lfemur -4.83653 -6.46654 -10.7795
ltibia 24.3571
lfoot -24.3032 11.4428
ltoes -55.6118
456
root -0.555149 18.6524 6.17838 1.17497 0.108291 -4.14893
lowerback 4.15612 -0.0296795 -1.79716
upperback -4.69708 -0.105728 1.08628
thorax -7.23628 0.0761581 2.1573
lowerneck -12.9503 -0.767935 -2.54315
upperneck 11.662 -1.62738 7.48491
head 5.73606 -0.341861 2.64306
rclavicle -1.03368e-014 0
rhumerus -56.3377 -9.07882 -70.9689
rradius 46.5848
rwrist 10.8613
rhand -4.55249 -44.3782
rfingers 7.12502
rthumb 21.2233 -73.2364
lclavicle -1.03368e-014 0
lhumerus 31.9616 -20.7049 51.3377
lradius 138.147
lwrist 13.9009
lhand -22.8366 -53.2023
lfingers 7.12502
lthumb 3.60088 -23.2529
rfemur 0 0 0
rtibia 0
rfoot 0 0
rtoes 0
lfemur -4.83459 -6.41495 -10.7583
ltibia 24.3654
lfoot -24.2586 11.3957
ltoes -55.6543
457
root -0.555244 18.6519 6.17736 1.12891 0.129046 -4.14099
lowerback 4.21652 -0.0357591 -1.81139
upperback -4.68469 -0.116348 1.07871
thorax -7.25763 0.0716143 2.15876
lowerneck -12.9688 -0.769699 -2.54311
upperneck 11.6615 -1.62637 7.4624
head 5.73873 -0.342707 2.63601
rclavicle 5.46658e-015 7.95139e-015
rhumerus -56.3051 -9.07155 -70.9999
rradius 46.5709
rwrist 10.8687
rhand -4.57436 -44.3356
rfingers 7.12502
rthumb 21.2023 -73.1961
lclavicle 5.46658e-015 7.95139e-015
lhumerus 31.93 -20.6792 51.3048
lradius 138.138
lwrist 13.9005
lhand -22.9512 -53.3106
lfingers 7.12502
lthumb 3.49019 -23.3594
rfemur 0 0 0
rtibia 0
rfoot 0 0
rtoes 0
lfemur -4.79641 -6.44119 -10.7738
ltibia 24.3771
lfoot -24.2494 11.406
ltoes -55.6423
458
root -0.555437 18.6518 6.17641 1.08704 0.143577 -4.17076
lowerback 4.25558 -0.0322622 -1.77729
upperback -4.66683 -0.109754 1.07611
thorax -7.26147 0.0728598 2.13629
lowerneck -12.9719 -0.784895 -2.55563
upperneck 11.6431 -1.64381 7.46463
head 5.73455 -0.351848 2.63709
rclavicle 5.11871e-015 3.97569e-016
rhumerus -56.232 -9.08261 -71.0278
rradius 46.511
rwrist 10.8809
rhand -4.54459 -44.403
rfingers 7.12502
rthumb 21.2309 -73.2603
lclavicle 5.11871e-015 3.97569e-016
lhumerus 31.9208 -20.6723 51.2862
lradius 138.146
lwrist 13.9418
lhand -23.0415 -53.3062
lfingers 7.12502
lthumb 3.40304 -23.3536
rfemur 0 0 0
rtibia 0
rfoot 0 0
rtoes 0
lfemur -4.76815 -6.41867 -10.7402
ltibia 24.3902
lfoot -24.226 11.4245
ltoes -55.7027
459
root -0.555266 18.6522 6.175 1.07166 0.167532 -4.19207
lowerback 4.28642 -0.0293193 -1.76146
upperback -4.67028 -0.104546 1.08341
thorax -7.28334 0.0751167 2.13474
lowerneck -12.9486 -0.800763 -2.58083
upperneck 11.6308 -1.66051 7.46831
head 5.72779 -0.361514 2.64078
rclavicle -7.7526e-015 -2.78299e-015
rhumerus -56.1949 -9.06525 -71.0299
rradius 46.4547
rwrist 10.9253
rhand -4.5121 -44.5063
rfingers 7.12502
rthumb 21.2621 -73.3601
lclavicle -7.7526e-015 -2.78299e-015
lhumerus 31.8902 -20.6924 51.3117
lradius 138.176
lwrist 14.0048
lhand -22.9909 -53.2247
lfingers 7.12502
lthumb 3.45185 -23.2729
rfemur 0 0 0
rtibia 0
rfoot 0 0
rtoes 0
lfemur -4.7674 -6.41493 -10.7137
ltibia 24.3961
lfoot -24.2346 11.3925
ltoes -55.7226
460
root -0.555122 18.6525 6.17348 1.06984 0.203929 -4.18044
lowerback 4.33 -0.0376488 -1.807
upperback -4.69028 -0.118989 1.09751
thorax -7.32954 0.0716448 2.17713
lowerneck -12.9156 -0.796973 -2.56553
upperneck 11.6361 -1.65284 7.4265
head 5.72289 -0.360787 2.62556
rclavicle 6.4605e-015 -7.95139e-015
rhumerus -56.2032 -9.01369 -71.0177
rradius 46.4472
rwrist 10.9863
rhand -4.41339 -44.621
rfingers 7.12502
rthumb 21.3569 -73.464
lclavicle 6.4605e-015 -7.95139e-015
lhumerus 31.8158 -20.6983 51.3535
lradius 138.213
lwrist 14.0491
lhand -22.8531 -53.1398
lfingers 7.12502
lthumb 3.58497 -23.1902
rfemur 0 0 0
rtibia 0
rfoot 0 0
rtoes 0
lfemur -4.77103 -6.50434 -10.7291
ltibia 24.3899
lfoot -24.2822 11.3649
ltoes -55.6102
461
root -0.555005 18.6526 6.17166 1.06393 0.22307 -4.15084
lowerback 4.37506 -0.036938 -1.85405
upperback -4.70157 -0.122859 1.09077
thorax -7.36781 0.0726651 2.19733
lowerneck -12.9228 -0.80059 -2.54884
upperneck 11.6773 -1.66228 7.41901
head 5.73737 -0.36432 2.62
rclavicle 6.80837e-015 -3.57812e-015
rhumerus -56.219 -8.97846 -71.0294
rradius 46.4689
rwrist 10.9761
rhand -4.32672 -44.6802
rfingers 7.12502
rthumb 21.4402 -73.5138
lclavicle 6.80837e-015 -3.57812e-015
lhumerus 31.7817 -20.6923 51.3512
lradius 138.223
lwrist 14.0622
lhand -22.759 -53.1304
lfingers 7.12502
lthumb 3.6758 -23.1823
rfemur 0 0 0
rtibia 0
rfoot 0 0
rtoes 0
lfemur -4.77007 -6.48856 -10.7563
ltibia 24.3721
lfoot -24.2661 11.332
ltoes -55.5616
